<svg width="1280" height="713" viewBox="0 0 1280 713" fill="none" xmlns="http://www.w3.org/2000/svg">
<g filter="url(#filter0_f_17_1121)">
<path d="M1596.29 323.041C1569.29 522.321 1467.08 707.688 1306.05 849.476C1145.01 991.265 934.446 1081.28 708.059 1105.1C481.672 1128.93 252.55 1085.2 57.3627 980.901C-137.824 876.605 -287.79 717.778 -368.533 529.84L99.2745 375.043C140.382 470.727 216.733 551.589 316.107 604.688C415.481 657.787 532.132 680.053 647.391 667.922C762.649 655.791 869.851 609.964 951.839 537.777C1033.83 465.589 1085.86 371.215 1099.61 269.758L1596.29 323.041Z" fill="url(#paint0_linear_17_1121)"/>
</g>
<defs>
<filter id="filter0_f_17_1121" x="-638.033" y="0.257507" width="2503.83" height="1380.69" filterUnits="userSpaceOnUse" color-interpolation-filters="sRGB">
<feFlood flood-opacity="0" result="BackgroundImageFix"/>
<feBlend mode="normal" in="SourceGraphic" in2="BackgroundImageFix" result="shape"/>
<feGaussianBlur stdDeviation="134.75" result="effect1_foregroundBlur_17_1121"/>
</filter>
<linearGradient id="paint0_linear_17_1121" x1="-224.047" y1="-91.0471" x2="1767.37" y2="339.056" gradientUnits="userSpaceOnUse">
<stop offset="0.180597" stop-color="#4FCAFF"/>
<stop offset="0.326428" stop-color="#CEFFD1"/>
<stop offset="0.465872" stop-color="#6320FF"/>
<stop offset="0.695107" stop-color="#7FA0F5"/>
<stop offset="0.851052" stop-color="#1D5CFC"/>
</linearGradient>
</defs>
</svg>
