<svg width="18" height="18" viewBox="0 0 18 18" fill="none" xmlns="http://www.w3.org/2000/svg">
<path d="M16.2515 2.40417L15.1715 5.59274C15.1342 5.66648 15.1148 5.74796 15.1148 5.83059C15.1148 5.91323 15.1342 5.99471 15.1715 6.06845L17.19 8.76845C17.248 8.84573 17.2831 8.93779 17.2912 9.03408C17.2993 9.13038 17.2802 9.227 17.2358 9.31289C17.1916 9.39877 17.124 9.47044 17.0409 9.51968C16.9577 9.56892 16.8624 9.59375 16.7658 9.59131H13.3972C13.3146 9.59374 13.2336 9.61463 13.1602 9.65246C13.0868 9.69028 13.0228 9.74408 12.9729 9.80988L11.0958 12.5099C11.0407 12.5888 10.9646 12.6507 10.8762 12.6885C10.7877 12.7264 10.6903 12.7386 10.5952 12.7239C10.5002 12.7091 10.4111 12.668 10.3382 12.6052C10.2653 12.5424 10.2115 12.4603 10.1829 12.3685L9.18006 9.15416C9.15719 9.07472 9.11452 9.00237 9.05606 8.9439C8.99758 8.88544 8.92523 8.84276 8.84579 8.81988L5.63151 7.81702C5.53962 7.78843 5.4576 7.73463 5.39477 7.66175C5.33193 7.58886 5.29082 7.4998 5.27608 7.40471C5.26135 7.30961 5.2736 7.21229 5.31143 7.1238C5.34925 7.03532 5.41115 6.95922 5.49008 6.90416L8.24149 4.96274C8.30731 4.91284 8.3611 4.84882 8.39893 4.77539C8.43675 4.70198 8.45765 4.62101 8.46006 4.53845V1.16988C8.46366 1.08141 8.49003 0.995357 8.53664 0.920063C8.58325 0.84477 8.6485 0.782786 8.72609 0.740113C8.80368 0.697439 8.89097 0.675521 8.97952 0.676483C9.06805 0.677443 9.15485 0.70125 9.23149 0.745598L11.9315 2.76417C12 2.81178 12.0789 2.84243 12.1616 2.8536C12.2443 2.86479 12.3285 2.85616 12.4072 2.82845L15.5958 1.74845C15.6872 1.71632 15.7859 1.71068 15.8804 1.73217C15.9749 1.75368 16.0614 1.80146 16.13 1.86999C16.1985 1.93853 16.2463 2.02505 16.2678 2.11955C16.2893 2.21406 16.2836 2.31273 16.2515 2.40417Z" stroke="#CEFFD1" stroke-linecap="round" stroke-linejoin="round"/>
<path d="M9.05164 8.94852L2 16" stroke="#CEFFD1" stroke-linecap="round" stroke-linejoin="round"/>
</svg>
